<svg xmlns="http://www.w3.org/2000/svg" version="1.1" xmlns:xlink="http://www.w3.org/1999/xlink" xmlns:svgjs="http://svgjs.dev/svgjs" width="1000" height="1000" viewBox="0 0 1000 1000"><rect width="1000" height="1000" fill="#000000"></rect><g transform="matrix(0.7,0,0,0.7,149.57575757575756,282.1265587044535)"><svg viewBox="0 0 396 247" data-background-color="#ffffff" preserveAspectRatio="xMidYMid meet" height="623" width="1000" xmlns="http://www.w3.org/2000/svg" xmlns:xlink="http://www.w3.org/1999/xlink"><g id="tight-bounds" transform="matrix(1,0,0,1,0.2400000000000091,-0.09999999999999432)"><svg viewBox="0 0 395.52 247.2" height="247.2" width="395.52"><g><svg></svg></g><g><svg viewBox="0 0 395.52 247.2" height="247.2" width="395.52"><g transform="matrix(1,0,0,1,75.54432,77.15763540446562)"><svg viewBox="0 0 244.43135999999998 92.88472919106876" height="92.88472919106876" width="244.43135999999998"><g><svg viewBox="0 0 244.43135999999998 92.88472919106876" height="92.88472919106876" width="244.43135999999998"><g><svg viewBox="0 0 244.43135999999998 92.88472919106876" height="92.88472919106876" width="244.43135999999998"><g><svg viewBox="0 0 244.43135999999998 92.88472919106876" height="92.88472919106876" width="244.43135999999998"><g id="textblocktransform"><svg viewBox="0 0 244.43135999999998 92.88472919106876" height="92.88472919106876" width="244.43135999999998" id="textblock"><g><svg viewBox="0 0 244.43135999999998 56.55849712571584" height="56.55849712571584" width="244.43135999999998"><g transform="matrix(1,0,0,1,0,0)"><svg width="244.43135999999998" viewBox="2.8600001335144043 -32.400001525878906 179.0399932861328 41.43000030517578" height="56.55849712571584" data-palette-color="#2b2b2b"><path d="M22.09 0L2.88-32.4 14.36-32.4 23.05-17.99 29.88-29.71 29.88-13.4 22.09 0ZM42.26 0L31.47 0 31.47-32.4 42.26-32.4 42.26 0ZM12.94 0L2.86 0 2.86-29.39 12.94-12.48 12.94 0ZM75.27-25.93L62.11 9.03 51.76 9.03 64.89-25.93 75.27-25.93ZM54.34-2.17L44.77-25.93 55.54-25.93 59.18-15.38 54.34-2.17ZM88.57 0L77.78 0 77.78-32.4 88.57-32.4 88.57 0ZM98.38-25.93L90.28-25.93 90.28-32.4 102.61-32.4 109.1-25.93 109.1-16.21 104.12-11.23 103.78-11.91 93.65-10.57 94.04-9.72 90.28-9.72 90.28-15.99 98.38-15.99 98.38-25.93ZM104.12-11.23L110.2 0 98.68 0 94.04-9.72 102.61-9.72 104.12-11.23ZM134.49-19.65L134.49-32.4 145.38-32.4 145.38 0 134.56 0 134.56-13.16 126.56-13.16 126.56-19.65 134.49-19.65ZM124.85-32.4L124.85 0 114.06 0 114.06-32.4 124.85-32.4ZM175.43 0L171.08 0 171.08-12.13 157.07-12.13 150.58-18.63 150.58-25.93 157.07-32.4 160.73-32.4 160.73-20.9 175.62-20.9 181.9-14.4 181.9-6.47 175.43 0ZM171.08-26.56L162.44-26.56 162.44-32.4 175.41-32.4 181.02-26.76 181.02-23.32 171.08-23.32 171.08-26.56ZM150.58-6.47L150.58-9.72 161.37-9.72 161.37-5.86 169.37-5.86 169.37 0 156.02 0 150.58-6.47Z" opacity="1" transform="matrix(1,0,0,1,0,0)" fill="#ffffff" class="wordmark-text-0" data-fill-palette-color="primary" id="text-0"></path></svg></g></svg></g><g transform="matrix(1,0,0,1,0,69.91060089316633)"><svg viewBox="0 0 244.43135999999998 22.97412829790243" height="22.97412829790243" width="244.43135999999998"><g transform="matrix(1,0,0,1,0,0)"><svg width="244.43135999999998" viewBox="3.6600000858306885 -34.52000045776367 517.9100341796875 48.68000030517578" height="22.97412829790243" data-palette-color="#f4a424"><path d="M3.66 0L3.66-3.91 10.25-3.91 10.25-26.49 3.66-26.49 3.66-30.4 19.53-30.4 30.98-10.13 41.63-30.4 57.5-30.4 57.5-26.49 50.95-26.49 50.95-3.91 57.5-3.91 57.5 0 39.79 0 39.79-3.91 45.41-3.91 45.41-26.71 32.3-1.73 29.35-1.73 15.8-25.93 15.8-3.91 21.36-3.91 21.36 0 3.66 0ZM52.66-5.37L52.66-24.78 59.25-24.78 59.25-29.17 60.23-29.17 60.23-23.85 53.64-23.85 53.64-5.37 52.66-5.37ZM31.32-13.18L22.29-29.15 23.36-29.15 31.88-14.21 31.32-13.18ZM5.13-23.85L5.13-24.78 9.23-24.78 9.23-23.85 5.13-23.85ZM31.05 0L33.45 0 44.24-20.61 44.24-18.58 34.08 0.93 31.57 0.93 31.05 0ZM17.5-5.37L17.5-20.31 18.48-18.58 18.48-5.37 17.5-5.37ZM41.26 1.71L59.25 1.71 59.25-2.54 60.23-2.54 60.23 2.64 41.26 2.64 41.26 1.71ZM5.13 1.71L23.12 1.71 23.12-2.54 24.1-2.54 24.1 2.64 5.13 2.64 5.13 1.71ZM73.17 7.86L79.37 7.86 83.1 0.9 69.48-19.9 64.26-19.9 64.26-23.56 80.93-23.56 80.93-19.9 75.75-19.9 85.84-4.17 94.28-19.9 88.35-19.9 88.35-23.56 104.61-23.56 104.61-19.9 99.66-19.9 82.52 11.52 73.17 11.52 73.17 7.86ZM74.63 13.23L83.79 13.23 100.95-18.19 106.37-18.19 106.37-22.19 107.35-22.19 107.35-17.26 101.51-17.26 84.4 14.16 74.63 14.16 74.63 13.23ZM86.03-7.5L79.2-18.19 82.69-18.19 82.69-22.19 83.66-22.19 83.66-17.26 80.93-17.26 86.57-8.47 86.03-7.5ZM89.55-17.26L89.55-18.19 92.09-18.19 91.6-17.26 89.55-17.26ZM65.72-17.26L65.72-18.19 69.26-18.19 69.87-17.26 65.72-17.26ZM127.58 0L127.58-3.91 133.95-3.91 133.95-26.49 127.21-26.49 127.21-30.4 147.21-30.4Q150.02-30.4 152.28-30.3 154.53-30.2 156.36-29.86L156.36-29.86Q158.51-29.44 160.01-28.71 161.52-27.98 162.47-26.94 163.42-25.9 163.85-24.6 164.27-23.29 164.27-21.75L164.27-21.75Q164.27-18.95 162.52-16.87 160.76-14.79 157.22-13.7L157.22-13.7Q156.78-13.55 156.3-13.44 155.83-13.33 155.34-13.21L155.34-13.21Q156.63-12.52 157.93-11.47 159.22-10.42 160.32-9.18 161.42-7.93 162.24-6.58 163.05-5.22 163.4-3.91L163.4-3.91 168.33-3.91 168.33 0 151.09 0 151.09-3.91 156.9-3.91Q156.49-5.22 155.61-6.62 154.73-8.01 153.48-9.23 152.24-10.45 150.66-11.35 149.09-12.26 147.31-12.57L147.31-12.57 139.45-12.57 139.45-3.91 145.4-3.91 145.4 0 127.58 0ZM159.07-12.77L159.07-12.77Q160.71-13.26 162-14.14 163.3-15.01 164.19-16.19 165.08-17.36 165.56-18.77 166.03-20.19 166.03-21.73L166.03-21.73Q166.03-22.8 165.81-23.8 165.59-24.8 165.06-25.72 164.52-26.64 163.62-27.49 162.71-28.34 161.37-29.15L161.37-29.15Q162.88-28.59 163.97-27.8 165.06-27 165.75-26.03 166.45-25.05 166.78-23.96 167.11-22.88 167.11-21.73L167.11-21.73Q167.11-20.31 166.73-18.97 166.35-17.63 165.58-16.42 164.81-15.21 163.62-14.21 162.42-13.21 160.81-12.5L160.81-12.5Q161.54-11.91 162.26-11.05 162.98-10.18 163.62-9.19 164.25-8.2 164.76-7.21 165.28-6.23 165.57-5.4L165.57-5.4 164.42-5.4Q164.06-6.35 163.51-7.41 162.96-8.47 162.26-9.47 161.56-10.47 160.76-11.34 159.95-12.21 159.07-12.77ZM139.45-16.48L148.26-16.48Q151.19-16.48 153.12-16.81 155.05-17.14 156.21-17.79 157.37-18.43 157.84-19.38 158.32-20.34 158.32-21.56L158.32-21.56Q158.32-23.07 157.24-24.28 156.17-25.49 153.83-26.07L153.83-26.07Q152.73-26.34 151.34-26.42 149.94-26.49 148.26-26.49L148.26-26.49 139.45-26.49 139.45-16.48ZM141.2-17.94L141.2-24.78 148.26-24.78Q150.26-24.78 151.6-24.69 152.95-24.61 153.87-24.39 154.8-24.17 155.41-23.82 156.02-23.46 156.54-22.92L156.54-22.92Q156.05-23.14 155.38-23.32 154.7-23.49 153.73-23.61 152.75-23.73 151.42-23.79 150.09-23.85 148.26-23.85L148.26-23.85 142.18-23.85 142.18-17.94 141.2-17.94ZM128.53-23.85L128.53-24.78 132.41-24.78 132.41-23.85 128.53-23.85ZM141.2-5.37L141.2-10.86 144.16-10.86Q146.5-10.86 148.32-10.49 150.14-10.11 150.97-9.18L150.97-9.18Q150.29-9.38 149.61-9.52 148.94-9.67 148.1-9.75 147.26-9.84 146.15-9.89 145.04-9.94 143.47-9.94L143.47-9.94 142.18-9.94 142.18-5.37 141.2-5.37ZM152.14 1.71L170.09 1.71 170.09-2.54 171.06-2.54 171.06 2.64 152.14 2.64 152.14 1.71ZM129.14 1.71L147.21 1.71 147.21-2.54 148.19-2.54 148.19 2.64 129.14 2.64 129.14 1.71ZM175.82 0L175.82-3.91 182.41-3.91 182.41-26.49 175.82-26.49 175.82-30.4 194.5-30.4 194.5-26.49 187.95-26.49 187.95-16.87 209.76-16.87 209.76-26.49 203.21-26.49 203.21-30.4 221.89-30.4 221.89-26.49 215.3-26.49 215.3-3.91 221.89-3.91 221.89 0 203.21 0 203.21-3.91 209.76-3.91 209.76-13.82 187.95-13.82 187.95-3.91 194.5-3.91 194.5 0 175.82 0ZM217.06-5.37L217.06-24.78 223.62-24.78 223.62-29.15 224.6-29.15 224.6-23.85 218.03-23.85 218.03-5.37 217.06-5.37ZM189.71-18.33L189.71-24.78 196.23-24.78 196.23-29.15 197.21-29.15 197.21-23.85 190.69-23.85 190.69-18.33 189.71-18.33ZM204.68-23.85L204.68-24.78 208.73-24.78 208.73-23.85 204.68-23.85ZM177.28-23.85L177.28-24.78 181.39-23.85 181.39-23.85 177.28-23.85ZM189.71-5.37L189.71-12.11 208.78-12.11 208.78-11.18 190.69-11.18 190.69-5.37 189.71-5.37ZM204.68 1.71L223.65 1.71 223.65-2.54 224.57-2.54 224.57 2.64 204.68 2.64 204.68 1.71ZM177.28 1.71L196.25 1.71 196.25-2.54 197.23-2.54 197.23 2.64 177.28 2.64 177.28 1.71ZM247.25 0L247.25-6.71 252.28-6.71Q252.94-5.71 254.16-4.96 255.38-4.2 256.96-3.71 258.53-3.22 260.41-2.98 262.29-2.73 264.27-2.73L264.27-2.73Q265.9-2.73 267.05-2.98 268.2-3.22 268.91-3.66 269.61-4.1 269.93-4.69 270.25-5.27 270.25-5.98L270.25-5.98Q270.25-7.47 267.87-8.53 265.49-9.59 260.34-10.16L260.34-10.16Q256.92-10.52 254.62-11.17 252.33-11.82 250.92-12.74 249.52-13.67 248.92-14.87 248.32-16.06 248.32-17.5L248.32-17.5Q248.32-18.75 249.11-19.97 249.89-21.19 251.49-22.16 253.09-23.12 255.49-23.71 257.9-24.29 261.14-24.29L261.14-24.29Q262.19-24.29 263.29-24.15 264.39-24 265.44-23.72 266.49-23.44 267.44-23.05 268.39-22.66 269.15-22.17L269.15-22.17 269.15-23.54 274.4-23.54 274.4-16.94 269.15-16.94Q268.88-17.7 268.03-18.38 267.17-19.07 266-19.58 264.83-20.09 263.51-20.4 262.19-20.7 261.02-20.7L261.02-20.7Q259.48-20.7 258.11-20.48 256.75-20.26 255.75-19.86 254.75-19.46 254.16-18.9 253.57-18.33 253.57-17.65L253.57-17.65Q253.57-17.02 254.03-16.5 254.48-15.99 255.54-15.55 256.6-15.11 258.37-14.73 260.14-14.36 262.78-14.04L262.78-14.04Q266.29-13.6 268.71-12.92 271.13-12.23 272.64-11.24 274.15-10.25 274.83-8.94 275.5-7.62 275.5-5.91L275.5-5.91Q275.5-4.66 274.74-3.48 273.98-2.29 272.53-1.35 271.08-0.42 268.97 0.16 266.86 0.73 264.12 0.73L264.12 0.73Q262.36 0.73 260.82 0.6 259.29 0.46 257.87 0.15 256.45-0.17 255.14-0.66 253.82-1.15 252.5-1.86L252.5-1.86 252.5 0 247.25 0ZM270.35-14.31L270.35-15.23 276.16-15.23 276.16-22.51 277.13-22.51 277.13-14.31 270.35-14.31ZM255.36-17.65L255.36-17.65Q255.43-17.97 255.94-18.24 256.45-18.51 257.25-18.71 258.04-18.92 259.01-19.04 259.97-19.17 260.95-19.17L260.95-19.17Q261.78-19.17 262.67-19.04 263.56-18.92 264.35-18.7 265.15-18.48 265.79-18.15 266.44-17.82 266.81-17.41L266.81-17.41Q266.24-17.65 265.46-17.81 264.68-17.97 263.86-18.07 263.05-18.16 262.27-18.21 261.48-18.26 260.95-18.26L260.95-18.26Q258.97-18.26 257.52-18.07 256.06-17.87 255.36-17.65ZM248.67-12.82L248.67-12.82Q249.35-11.94 250.3-11.25 251.25-10.57 252.6-10.03 253.94-9.5 255.72-9.12 257.5-8.74 259.82-8.47L259.82-8.47Q261.95-8.23 263.51-7.95 265.07-7.67 266.12-7.32 267.17-6.98 267.76-6.56 268.34-6.13 268.52-5.59L268.52-5.59Q268-5.93 267.34-6.19 266.68-6.45 265.66-6.67 264.63-6.88 263.13-7.1 261.63-7.32 259.41-7.59L259.41-7.59Q254.82-8.13 252.16-9.34 249.5-10.55 248.67-12.82ZM248.45 1.71L254.26 1.71 254.26 0.68Q254.94 1 255.99 1.31 257.04 1.61 258.35 1.87 259.65 2.12 261.12 2.28 262.58 2.44 264.1 2.44L264.1 2.44Q267.12 2.44 269.57 1.77 272.01 1.1 273.72-0.04 275.42-1.17 276.34-2.67 277.26-4.17 277.26-5.83L277.26-5.83Q277.26-6.49 277.18-7.06 277.11-7.62 276.93-8.13 276.74-8.64 276.44-9.16 276.13-9.67 275.67-10.23L275.67-10.23Q278.23-8.72 278.23-5.83L278.23-5.83Q278.23-3.88 277.23-2.2 276.23-0.51 274.39 0.72 272.54 1.95 269.93 2.66 267.32 3.37 264.07 3.37L264.07 3.37Q262.88 3.37 261.65 3.26 260.43 3.15 259.29 2.95 258.14 2.76 257.11 2.49 256.09 2.22 255.28 1.88L255.28 1.88 255.28 2.69 248.45 2.69 248.45 1.71ZM284.04-11.4L284.04-11.4Q284.04-14.06 285.19-16.42 286.34-18.77 288.4-20.52 290.46-22.27 293.34-23.28 296.22-24.29 299.67-24.29L299.67-24.29Q303.28-24.29 306.12-23.33 308.97-22.36 310.93-20.65 312.9-18.95 313.94-16.6 314.97-14.26 314.97-11.5L314.97-11.5Q314.97-8.84 313.84-6.59 312.7-4.35 310.61-2.72 308.53-1.1 305.61-0.18 302.69 0.73 299.1 0.73L299.1 0.73Q295.71 0.73 292.94-0.28 290.17-1.29 288.19-2.98 286.21-4.66 285.13-6.85 284.04-9.03 284.04-11.4ZM287.87-1.12L287.87-1.12Q290.24 0.59 293.11 1.51 295.98 2.44 299.59 2.44L299.59 2.44Q302.96 2.44 306.06 1.53 309.16 0.61 311.53-1.17 313.9-2.95 315.31-5.55 316.73-8.15 316.73-11.5L316.73-11.5Q316.73-13.13 316.28-14.81 315.83-16.48 315.01-18.02 314.19-19.56 313.02-20.89 311.85-22.22 310.41-23.14L310.41-23.14Q312.04-22.41 313.4-21.22 314.75-20.02 315.71-18.49 316.66-16.97 317.18-15.19 317.71-13.4 317.71-11.5L317.71-11.5Q317.71-9.11 317.02-7.07 316.34-5.03 315.13-3.38 313.92-1.73 312.25-0.46 310.58 0.81 308.58 1.65 306.57 2.49 304.32 2.93 302.06 3.37 299.71 3.37L299.71 3.37Q297.76 3.37 295.98 3.06 294.2 2.76 292.67 2.19 291.14 1.61 289.92 0.78 288.7-0.05 287.87-1.12ZM289.46-11.5L289.46-11.5Q289.46-9.62 290.18-8.07 290.9-6.52 292.22-5.41 293.54-4.3 295.38-3.69 297.22-3.08 299.47-3.08L299.47-3.08Q301.74-3.08 303.6-3.7 305.45-4.32 306.79-5.43 308.14-6.54 308.87-8.09 309.6-9.64 309.6-11.5L309.6-11.5Q309.6-13.33 308.87-14.95 308.14-16.58 306.82-17.81 305.5-19.04 303.66-19.76 301.81-20.48 299.59-20.48L299.59-20.48Q297.27-20.48 295.4-19.79 293.54-19.09 292.22-17.88 290.9-16.67 290.18-15.04 289.46-13.4 289.46-11.5ZM291.17-11.4L291.17-11.4Q291.17-12.94 291.78-14.29 292.39-15.65 293.5-16.64 294.61-17.63 296.16-18.2 297.71-18.77 299.59-18.77L299.59-18.77Q300.79-18.77 301.91-18.52 303.03-18.26 303.99-17.77 304.94-17.29 305.67-16.59 306.4-15.89 306.84-15.01L306.84-15.01Q305.23-16.48 303.49-17.16 301.74-17.85 299.54-17.85L299.54-17.85Q297.96-17.85 296.61-17.33 295.27-16.82 294.27-15.94 293.27-15.06 292.71-13.89 292.15-12.72 292.15-11.4L292.15-11.4Q292.15-10.3 292.41-9.35 292.68-8.4 293.33-7.58 293.98-6.76 295.05-6.1 296.13-5.44 297.74-4.93L297.74-4.93Q296.27-5.03 295.06-5.55 293.85-6.08 292.99-6.93 292.12-7.79 291.65-8.94 291.17-10.08 291.17-11.4ZM323.44 0L323.44-3.66 328.81-3.66 328.81-30.4 323.44-30.4 323.44-34.06 334.06-34.06 334.06-3.66 339.43-3.66 339.43 0 323.44 0ZM335.77-5.13L335.77-32.81 336.75-32.81 336.75-5.13 335.77-5.13ZM324.91-27.76L324.91-28.69 327.79-28.69 327.79-27.76 324.91-27.76ZM324.91 1.71L341.19 1.71 341.19-2.29 342.17-2.29 342.17 2.64 324.91 2.64 324.91 1.71ZM349.95-5.47L349.95-5.47Q349.46-6.71 349.23-8.18 349-9.64 349-11.4L349-11.4 349-19.41 344.85-19.41 344.85-23.56 354.25-23.56 354.25-13.48Q354.25-11.5 354.43-9.95 354.62-8.4 354.96-7.52L354.96-7.52Q355.4-6.4 356.11-5.62 356.81-4.83 357.7-4.35 358.6-3.86 359.63-3.64 360.67-3.42 361.79-3.42L361.79-3.42Q362.99-3.42 364.27-3.86 365.55-4.3 366.75-5.08 367.95-5.86 368.98-6.93 370.02-8.01 370.73-9.25L370.73-9.25 370.73-19.41 365.36-19.41 365.36-23.56 375.98-23.56 375.98-3.66 380.13-3.66 380.13 0 370.73 0 370.73-3.71Q369.95-2.76 368.84-1.95 367.73-1.15 366.37-0.55 365.02 0.05 363.45 0.39 361.89 0.73 360.21 0.73L360.21 0.73Q356.57 0.73 353.9-0.79 351.22-2.32 349.95-5.47ZM377.69-5.13L377.69-22.31 378.66-22.31 378.66-5.13 377.69-5.13ZM356.01-12.01L356.01-22.31 356.98-22.31 356.98-12.28Q356.98-10.38 357.35-9.11 357.72-7.84 358.33-7.03 358.94-6.23 359.72-5.79 360.5-5.35 361.33-5.1L361.33-5.1Q358.77-5.13 357.39-6.8 356.01-8.47 356.01-12.01L356.01-12.01ZM366.82-16.77L366.82-17.7 369.7-17.7 369.7-16.77 366.82-16.77ZM346.32-16.77L346.32-17.7 347.98-17.7 347.98-16.77 346.32-16.77ZM372.19 1.71L381.89 1.71 381.89-2.29 382.86-2.29 382.86 2.64 372.19 2.64 372.19 1.71ZM350.22-1.64L350.22-1.64Q352.13 0.42 354.52 1.43 356.91 2.44 360.23 2.44L360.23 2.44Q363.19 2.44 365.52 1.67 367.85 0.9 369.75-0.42L369.75-0.42 369.75 0.71Q367.6 2.1 365.29 2.73 362.97 3.37 360.26 3.37L360.26 3.37Q356.57 3.37 353.98 2.09 351.39 0.81 350.22-1.64ZM392.6-8.74L392.6-19.41 387.23-19.41 387.23-23.56 392.6-23.56 392.6-28.49 397.85-30.69 397.85-23.56 409.98-23.56 409.98-19.41 397.85-19.41 397.85-7.76Q397.85-5.93 399-5.04 400.15-4.15 402.12-4.15L402.12-4.15 409.01-4.15 409.01 0 402.12 0Q400.15 0 398.41-0.43 396.68-0.85 395.39-1.87 394.09-2.88 393.35-4.55 392.6-6.23 392.6-8.74L392.6-8.74ZM399.61-25.02L399.61-29.35 400.59-29.79 400.59-25.02 399.61-25.02ZM399.56-6.76L399.56-17.97 411.74-17.97 411.74-22.46 412.72-22.46 412.72-17.04 400.54-17.04 400.54-5.79Q399.71-6.01 399.56-6.76L399.56-6.76ZM388.7-16.77L388.7-17.7 391.63-17.7 391.63-16.77 388.7-16.77ZM392.46-2.1L392.46-2.1Q393.24-1 394.2-0.27 395.17 0.46 396.36 0.9 397.56 1.34 398.97 1.53 400.39 1.71 402.07 1.71L402.07 1.71 410.77 1.71 410.77-3.05 411.74-3.05 411.74 2.64 401.95 2.64Q400.07 2.64 398.53 2.39 397 2.15 395.81 1.6 394.63 1.05 393.79 0.13 392.94-0.78 392.46-2.1ZM423.31-29.64L423.31-34.52 429.29-34.52 429.29-29.64 423.31-29.64ZM424.78-27L424.78-27.93 431.05-27.93 431.05-33.15 432.03-33.15 432.03-27 424.78-27ZM418.19 0L418.19-3.66 424.78-3.66 424.04-19.41 418.19-19.41 418.19-23.56 429.29-23.56 429.29-3.66 434.91-3.66 434.91 0 418.19 0ZM431-5.13L431-22.31 431.98-22.31 431.98-5.13 431-5.13ZM419.65-16.77L419.65-17.7 423.02-17.7 423.02-16.77 419.65-16.77ZM419.65 1.71L436.67 1.71 436.67-2.29 437.64-2.29 437.64 2.64 419.65 2.64 419.65 1.71ZM441.06-11.4L441.06-11.4Q441.06-14.06 442.21-16.42 443.35-18.77 445.42-20.52 447.48-22.27 450.36-23.28 453.24-24.29 456.68-24.29L456.68-24.29Q460.3-24.29 463.14-23.33 465.99-22.36 467.95-20.65 469.92-18.95 470.95-16.6 471.99-14.26 471.99-11.5L471.99-11.5Q471.99-8.84 470.86-6.59 469.72-4.35 467.63-2.72 465.55-1.1 462.63-0.18 459.71 0.73 456.12 0.73L456.12 0.73Q452.73 0.73 449.96-0.28 447.19-1.29 445.21-2.98 443.23-4.66 442.15-6.85 441.06-9.03 441.06-11.4ZM444.89-1.12L444.89-1.12Q447.26 0.59 450.13 1.51 453 2.44 456.61 2.44L456.61 2.44Q459.98 2.44 463.08 1.53 466.18 0.61 468.55-1.17 470.92-2.95 472.33-5.55 473.75-8.15 473.75-11.5L473.75-11.5Q473.75-13.13 473.3-14.81 472.85-16.48 472.03-18.02 471.21-19.56 470.04-20.89 468.87-22.22 467.43-23.14L467.43-23.14Q469.06-22.41 470.42-21.22 471.77-20.02 472.72-18.49 473.68-16.97 474.2-15.19 474.73-13.4 474.73-11.5L474.73-11.5Q474.73-9.11 474.04-7.07 473.36-5.03 472.15-3.38 470.94-1.73 469.27-0.46 467.6 0.81 465.6 1.65 463.59 2.49 461.33 2.93 459.08 3.37 456.73 3.37L456.73 3.37Q454.78 3.37 453 3.06 451.22 2.76 449.69 2.19 448.16 1.61 446.94 0.78 445.72-0.05 444.89-1.12ZM446.48-11.5L446.48-11.5Q446.48-9.62 447.2-8.07 447.92-6.52 449.24-5.41 450.56-4.3 452.4-3.69 454.24-3.08 456.49-3.08L456.49-3.08Q458.76-3.08 460.61-3.7 462.47-4.32 463.81-5.43 465.16-6.54 465.89-8.09 466.62-9.64 466.62-11.5L466.62-11.5Q466.62-13.33 465.89-14.95 465.16-16.58 463.84-17.81 462.52-19.04 460.68-19.76 458.83-20.48 456.61-20.48L456.61-20.48Q454.29-20.48 452.42-19.79 450.56-19.09 449.24-17.88 447.92-16.67 447.2-15.04 446.48-13.4 446.48-11.5ZM448.19-11.4L448.19-11.4Q448.19-12.94 448.8-14.29 449.41-15.65 450.52-16.64 451.63-17.63 453.18-18.2 454.73-18.77 456.61-18.77L456.61-18.77Q457.81-18.77 458.93-18.52 460.05-18.26 461.01-17.77 461.96-17.29 462.69-16.59 463.42-15.89 463.86-15.01L463.86-15.01Q462.25-16.48 460.5-17.16 458.76-17.85 456.56-17.85L456.56-17.85Q454.97-17.85 453.63-17.33 452.29-16.82 451.29-15.94 450.29-15.06 449.73-13.89 449.16-12.72 449.16-11.4L449.16-11.4Q449.16-10.3 449.43-9.35 449.7-8.4 450.35-7.58 451-6.76 452.07-6.1 453.14-5.44 454.76-4.93L454.76-4.93Q453.29-5.03 452.08-5.55 450.87-6.08 450.01-6.93 449.14-7.79 448.66-8.94 448.19-10.08 448.19-11.4ZM481.36 0L481.36-3.66 486.74-3.66 486.74-19.41 481.36-19.41 481.36-23.56 491.98-23.56 491.98-19.87Q492.74-20.8 493.8-21.61 494.86-22.41 496.18-23.01 497.5-23.61 499.04-23.95 500.58-24.29 502.26-24.29L502.26-24.29Q504.8-24.29 506.88-23.57 508.95-22.85 510.42-21.35 511.88-19.85 512.68-17.57 513.47-15.28 513.47-12.16L513.47-12.16 513.47-3.66 518.84-3.66 518.84 0 504.07 0 504.07-3.66 508.22-3.66 508.22-10.08Q508.22-12.06 508.04-13.61 507.85-15.16 507.51-16.04L507.51-16.04Q507.07-17.16 506.4-17.94 505.73-18.73 504.89-19.21 504.04-19.7 503.04-19.92 502.04-20.14 500.92-20.14L500.92-20.14Q499.72-20.14 498.44-19.7 497.16-19.26 495.95-18.47 494.74-17.68 493.71-16.6 492.67-15.53 491.98-14.28L491.98-14.28 491.98-3.66 496.13-3.66 496.13 0 481.36 0ZM515.23-5.13L515.23-11.99Q515.23-14.14 514.9-15.98 514.57-17.82 513.91-19.3 513.25-20.78 512.28-21.85 511.32-22.92 510.05-23.56L510.05-23.56Q511.71-23.14 512.88-22.16 514.05-21.17 514.79-19.65 515.52-18.14 515.86-16.16 516.2-14.18 516.2-11.82L516.2-11.82 516.2-5.13 515.23-5.13ZM493.74-5.13L493.74-13.67Q494.35-14.75 495.19-15.63 496.04-16.5 497.03-17.13 498.01-17.75 499.1-18.09 500.19-18.43 501.26-18.43L501.26-18.43Q502.95-18.43 504-17.8 505.05-17.16 505.53-16.19L505.53-16.19Q504.78-16.75 503.76-17.14 502.75-17.53 501.21-17.53L501.21-17.53Q500.26-17.53 499.28-17.18 498.31-16.82 497.43-16.24 496.55-15.65 495.84-14.89 495.13-14.14 494.72-13.35L494.72-13.35 494.72-5.13 493.74-5.13ZM482.83-16.77L482.83-17.7 485.71-17.7 485.71-16.77 482.83-16.77ZM505.53 1.71L520.6 1.71 520.6-2.29 521.57-2.29 521.57 2.64 505.53 2.64 505.53 1.71ZM482.83 1.71L497.89 1.71 497.89-2.29 498.87-2.29 498.87 2.64 482.83 2.64 482.83 1.71Z" opacity="1" transform="matrix(1,0,0,1,0,0)" fill="#ffffff" class="slogan-text-1" data-fill-palette-color="secondary" id="text-1"></path></svg></g></svg></g></svg></g></svg></g></svg></g></svg></g></svg></g><g><path d="M0 123.6c0-68.262 55.338-123.6 123.6-123.6 49.248 0 91.769 28.803 111.636 70.482l-2.833 0c-19.676-40.227-61.004-67.931-108.803-67.932-66.854 0-121.05 54.196-121.05 121.05 0 66.854 54.196 121.05 121.05 121.05 47.799 0 89.127-27.704 108.803-67.932h2.833c-19.867 41.679-62.388 70.482-111.636 70.482-68.262 0-123.6-55.338-123.6-123.6z" fill="#ffffff" stroke="transparent" data-fill-palette-color="tertiary"></path></g></svg></g><defs></defs></svg><rect width="395.52" height="247.2" fill="none" stroke="none" visibility="hidden"></rect></g></svg></g></svg>